<svg width="160" height="197" viewBox="0 0 160 197" fill="none" xmlns="http://www.w3.org/2000/svg">
<g id="Zahlen 1" clip-path="url(#clip0_187_16)">
<path id="_x30_d" d="M108.642 120.494C107.16 127.407 105.185 133.333 102.716 138.271C100.247 143.21 96.7901 147.16 92.8395 149.63C88.8888 152.592 84.9382 153.58 80 153.58V196.543C91.358 196.543 102.222 194.074 112.099 189.63C121.975 184.691 129.877 178.271 136.79 169.876C143.704 161.481 149.136 150.617 153.086 138.765C157.037 126.913 159.012 113.086 159.012 98.2715H111.111C111.111 106.667 110.123 114.074 108.642 120.494Z" fill="black"/>
<path id="_x30_c" d="M67.1605 149.63C63.2099 147.16 60.2469 143.21 57.284 138.271C54.321 133.333 52.3457 127.407 50.8642 120.494C49.3827 113.58 48.3951 106.173 48.3951 98.2715H0.987671C0.987671 113.086 2.96298 126.42 6.9136 138.765C10.8642 151.111 16.2963 161.481 23.2099 169.876C30.1235 178.271 38.5185 185.185 48.3951 189.63C57.7778 194.074 68.642 196.543 80 196.543V153.58C75.0617 153.58 71.1111 152.099 67.1605 149.63Z" fill="black"/>
<path id="_x30_b" d="M136.79 26.6667C129.877 18.2716 121.482 11.358 112.099 6.91358C102.222 1.97531 91.8519 0 80 0V42.963C84.4445 42.963 88.8889 44.4444 92.8395 46.9136C96.7901 49.3827 99.7531 53.3333 102.716 58.2716C105.185 63.2099 107.654 69.1358 108.642 76.0494C110.123 82.963 111.111 90.3704 111.111 98.2716H159.012C159.012 83.4568 157.037 70.1235 153.086 57.7778C149.136 45.9259 143.704 35.5556 136.79 26.6667Z" fill="black"/>
<path id="_x30_a" d="M51.358 76.0494C52.8395 69.1358 54.8148 63.2099 57.7778 58.2716C60.2469 53.3333 63.7037 49.3827 67.6543 46.9136C71.605 44.4444 75.5556 42.963 80.4938 42.963V0C68.642 0 58.2716 2.46914 48.8889 6.91358C39.0124 11.8519 31.1111 18.2716 23.7037 26.6667C16.7901 35.0617 11.358 45.4321 7.40742 57.7778C2.96298 70.1235 0.987671 83.4568 0.987671 98.2716H48.8889C48.8889 90.3704 49.3827 82.963 51.358 76.0494Z" fill="black"/>
<path id="_x39_d" d="M31.6049 191.605H87.4074L137.284 130.864H84.4444L31.6049 191.605Z" fill="black"/>
<path id="_x39_c" d="M109.63 60.2472C110.617 63.2102 111.111 66.1731 111.111 69.6299C111.111 73.0867 110.123 78.025 108.642 81.4818C107.16 85.4324 104.691 88.3953 102.222 91.3583C99.7531 94.3213 96.2963 96.2966 92.3457 98.2719C88.395 99.7534 84.4444 100.741 80.4938 100.741C76.5432 100.741 72.0987 99.7534 68.642 98.2719C64.6913 96.7904 61.7284 94.3213 58.7654 91.3583C55.8024 88.3953 53.8271 85.4324 52.3457 81.4818C51.8518 80.0003 51.358 78.5188 50.8642 77.0373L5.9259 94.8151V95.8027C8.88887 103.704 13.3333 111.111 18.7654 117.037C24.1975 122.963 31.1111 127.902 38.5185 131.358C45.9259 134.815 54.321 136.297 63.7037 136.297C73.0864 136.297 68.642 136.297 71.6049 135.309C74.5679 134.815 78.5185 132.84 82.9629 130.371H136.79C143.21 120.988 148.642 112.099 152.099 102.716C156.543 90.3706 159.012 79.0126 159.012 68.6423C159.012 58.2719 157.037 50.3706 153.58 41.9756L109.63 59.7534V60.2472Z" fill="black"/>
<path id="_x39_b" d="M91.8518 40.9877C95.8025 42.4691 98.7654 44.9383 101.728 47.9012C104.691 50.8642 106.667 53.8272 108.148 57.7778C108.148 58.7654 109.136 59.7531 109.136 60.7407L153.086 42.963C149.63 34.5679 144.198 27.1605 137.284 21.2346C130.37 14.8148 121.975 9.87654 112.593 6.41975C103.21 1.97531 92.3457 0 80 0V38.0247C84.4444 38.0247 88.3951 39.0123 91.8518 40.4938V40.9877Z" fill="black"/>
<path id="_x39_a" d="M49.3827 69.1358C49.3827 64.6914 50.3704 60.7407 51.8519 57.2839C53.3334 53.3333 55.8025 50.3704 58.2716 47.4074C61.2346 44.4444 64.1975 42.4691 68.1482 40.4938C72.0988 39.0123 76.0494 38.0247 80 38.0247V0C67.6543 0 56.7901 1.97531 46.9136 5.4321C37.0371 8.88889 29.1358 13.8272 22.2222 20.2469C15.3087 26.6667 10.3704 34.0741 6.41977 42.4691C2.96298 50.8642 0.987671 60.2469 0.987671 70.1234C0.987671 80 2.46915 86.9136 5.43212 94.8148L50.3704 77.037C49.8766 74.5679 49.3827 72.0988 49.3827 69.1358Z" fill="black"/>
<path id="_x38_f" d="M100.741 144.198C99.7531 147.161 97.7778 149.136 95.8025 151.605C93.8272 153.581 91.358 155.556 88.3951 156.543C85.9259 157.531 82.963 158.519 80 158.519V197.037C90.3704 197.037 99.7531 195.556 108.642 192.593C117.531 189.63 124.938 185.679 130.864 180.741C137.284 175.803 142.222 169.877 145.679 163.457C149.136 156.543 151.111 149.136 151.111 141.235C151.111 133.334 151.111 137.284 151.111 135.803H102.716C102.716 138.766 102.222 141.729 101.235 144.198H100.741Z" fill="black"/>
<path id="_x38_e" d="M71.1111 156.543C68.6419 155.556 66.1728 153.581 64.1975 151.605C62.2222 149.63 60.7407 147.161 59.2592 144.198C58.2716 141.729 57.7778 138.766 57.7778 135.803H9.38269C9.38269 137.778 9.38269 139.26 9.38269 141.235C9.38269 149.136 11.358 156.543 14.8148 163.457C18.2716 170.371 23.7037 176.297 29.6296 181.235C35.5555 186.173 43.4568 190.124 52.3457 192.593C61.2345 195.556 70.1234 196.543 80.4938 196.543V158.025C77.5308 158.025 74.5679 157.531 71.6049 156.05L71.1111 156.543Z" fill="black"/>
<path id="_x38_d" d="M9.38274 135.802H57.7778C57.7778 129.876 59.7531 124.444 64.1976 120C68.642 115.555 73.5803 113.58 80 113.58C86.4198 113.58 91.3581 115.555 95.8025 120C100.247 124.444 102.222 129.876 102.222 135.802H150.617C148.642 116.543 136.296 102.716 113.086 93.333H45.4321C23.2099 101.728 10.8642 116.049 8.88892 135.802H9.38274Z" fill="black"/>
<path id="_x38_c" d="M100.741 53.3337C100.741 55.8029 100.247 58.272 99.2592 60.7411C98.2716 63.2103 96.7901 65.1856 94.8148 67.1609C92.8395 69.1362 90.8642 70.6177 88.395 71.6053C85.9259 72.593 82.9629 73.5807 80 73.5807C74.074 73.5807 69.1358 71.6053 65.1852 67.6547C61.2345 63.7041 59.2592 58.7658 59.2592 52.8399C59.2592 46.914 59.2592 51.8523 59.2592 51.3584L16.2963 52.3461C16.2963 71.6053 26.1728 85.4325 45.4321 93.3337H113.086C119.012 90.8646 123.457 87.9016 127.407 85.4325C131.358 82.4695 134.321 79.5066 136.79 76.5436C139.259 73.5807 140.741 69.63 141.728 66.1732C142.716 62.2226 143.21 57.7782 143.21 52.8399C143.21 47.9016 143.21 50.8646 143.21 49.877L100.247 50.8646C100.247 51.8523 100.247 52.3461 100.247 53.3337H100.741Z" fill="black"/>
<path id="_x38_b" d="M125.926 14.321C120.494 9.87654 113.58 6.41975 105.679 3.95062C97.7778 1.48148 89.3827 0 80 0V32.0988C85.9259 32.0988 90.8642 34.0741 94.8148 38.0247C98.2716 41.4815 99.7531 45.4321 100.741 49.8765L143.704 48.8889C143.704 41.9753 141.728 36.0494 139.259 30.1235C136.296 23.7037 131.852 18.2716 126.42 13.8272L125.926 14.321Z" fill="black"/>
<path id="_x38_a" d="M65.1852 38.5185C69.1358 34.5679 74.0741 32.5926 80 32.5926V0C70.6173 0 62.2223 0.987654 54.321 3.95062C46.4198 6.41975 40 9.87654 34.0741 14.321C28.642 18.7654 24.1976 24.1975 21.2346 30.6173C18.2716 37.037 16.7902 43.9506 16.7902 51.8519L59.7531 50.8642C59.7531 45.9259 61.7284 41.4815 65.679 38.0247L65.1852 38.5185Z" fill="black"/>
<path id="_x37_c" d="M0 191.605H53.3333L101.235 108.148H48.8889L0 191.605Z" fill="black"/>
<path id="_x37_b" d="M48.8889 108.148H101.235L136.296 46.4199H84.9383L48.8889 108.148Z" fill="black"/>
<path id="_x37_a" d="M7.40741 5.43164V46.4193H84.9383H136.296L160 5.43164H7.40741Z" fill="black"/>
<path id="_x36_e" d="M141.235 79.506C135.802 73.5801 128.889 68.6418 121.481 65.185C114.074 61.7282 105.679 59.7529 96.7901 59.7529C87.9012 59.7529 91.8519 59.7529 88.8889 60.7406C85.9259 61.2344 81.9753 63.2097 77.5309 65.6789H76.5432L80.4938 96.2961C84.9383 96.2961 88.8889 97.2838 92.3457 98.7653C96.2963 100.247 99.2593 102.716 102.222 105.679C105.185 108.642 107.16 111.605 109.136 115.555C110.123 118.025 110.617 120.494 111.111 122.963L152.099 94.3208C149.136 88.8887 146.173 83.9505 141.728 79.506H141.235Z" fill="black"/>
<path id="_x36_d" d="M154.074 100.741C153.086 98.7657 152.099 96.2966 151.111 94.3213L110.123 122.963C110.123 124.445 110.123 125.926 110.123 127.408C110.123 131.852 109.136 135.803 107.654 139.26C106.173 143.21 103.704 146.173 100.741 149.136C97.7777 152.099 94.8148 154.074 90.8641 155.556L114.568 189.63C122.963 186.173 130.37 181.729 136.79 175.803C143.704 169.383 148.642 161.976 152.593 153.581C156.049 145.185 158.025 135.803 158.025 125.926C158.025 116.05 156.543 108.148 153.086 100.247L154.074 100.741Z" fill="black"/>
<path id="_x36_c" d="M80 158.518C75.5556 158.518 71.6049 157.531 68.1481 156.049C64.1975 154.568 61.2346 152.099 58.2716 149.629C55.3086 146.667 53.3333 143.704 51.358 139.753L10.8642 162.963C13.8272 167.901 17.7778 172.346 22.2222 176.79C29.1358 183.21 37.5309 188.148 46.9136 191.605C56.7901 195.062 67.6543 197.037 80 197.037C92.3457 197.037 103.21 195.062 113.086 191.605C114.074 191.605 115.062 190.617 116.049 190.617L92.3457 156.543C88.3951 158.025 84.4444 159.012 80.4938 159.012L80 158.518Z" fill="black"/>
<path id="_x36_b" d="M48.8889 127.407C48.8889 122.963 49.8766 119.012 51.358 115.555C52.8395 111.605 55.3087 108.642 58.2716 105.679C61.2346 102.716 64.1975 100.74 68.1482 98.7651C72.0988 97.2836 76.0494 96.296 80 96.296L76.0494 65.6787L21.7284 67.654C15.8025 76.0491 11.358 84.4441 7.90125 93.333C2.96298 105.679 0.987671 117.037 0.987671 127.407C0.987671 137.777 2.96298 145.679 6.41977 154.074C7.90125 157.037 9.38273 159.506 10.8642 162.469L51.358 139.259C49.8766 135.308 48.8889 131.358 48.8889 127.407Z" fill="black"/>
<path id="_x36_a" d="M128.889 5.43164H72.5926L29.6296 57.7773C26.6667 61.2341 24.1975 64.6909 21.7284 68.1477L76.0494 66.1724L128.889 5.43164Z" fill="black"/>
<path id="_x35_e" d="M67.1605 156.543C59.2592 156.543 51.358 154.568 42.963 151.111C34.5679 147.16 26.1728 142.222 17.7778 134.814L10.3704 180.247C19.2592 185.679 28.642 190.123 39.0123 192.592C49.3827 195.061 59.7531 196.543 71.1111 196.543C82.4691 196.543 93.8271 195.061 103.704 192.098C113.58 189.135 121.481 184.691 128.395 179.259C130.864 177.284 133.333 174.814 135.309 171.851L90.8642 148.642C84.9383 154.074 77.037 156.543 67.1605 156.543Z" fill="black"/>
<path id="_x35_d" d="M130.587 84.1681L94.8148 113.086C97.7777 117.531 99.753 122.469 99.753 128.395C99.753 134.321 96.7901 142.716 90.8641 148.148L135.309 171.358C138.765 167.407 141.728 162.963 143.704 158.025C147.654 150.123 149.136 140.741 149.136 130.864C149.136 120.988 147.654 112.592 144.197 104.691C140.741 96.79 136.513 90.094 130.587 84.1681Z" fill="black"/>
<path id="_x35_c" d="M110.123 70.617C102.222 67.1602 93.3333 65.6787 83.9506 65.6787C74.5679 65.6787 79.0124 65.6787 76.5432 65.6787C74.0741 65.6787 71.1111 66.1725 68.1482 66.6664L22.7161 105.185C28.642 102.716 34.5679 100.74 40 99.259C45.9259 98.2713 51.8519 97.2837 57.284 97.2837C69.6296 97.2837 80 100.247 87.4074 105.679C90.3704 107.654 92.3457 110.123 94.321 112.592L130.37 83.4565C124.444 77.5306 117.531 73.0861 109.63 69.6293L110.123 70.617Z" fill="black"/>
<path id="_x35_b" d="M71.605 46.4199H32.0988L22.7161 105.185L68.1482 66.6668L71.605 46.4199Z" fill="black"/>
<path id="_x35_a" d="M135.802 46.4193V5.43164H38.5185L32.0988 46.4193H71.6049H135.802Z" fill="black"/>
<path id="_x34_f" d="M136.296 153.086H91.358V191.604H136.296V153.086Z" fill="black"/>
<path id="_x34_e" d="M158.518 116.05H136.296V153.087H158.518V116.05Z" fill="black"/>
<path id="_x34_d" d="M136.296 116.05H91.358V153.087H136.296V116.05Z" fill="black"/>
<path id="_x34_c" d="M48.3951 116.05H4.9383L1.48151 122.47V153.087H91.358V116.05H48.3951Z" fill="black"/>
<path id="_x34_b" d="M91.358 101.234V116.049H136.296V108.148V5.43164H115.062L91.358 42.9625V101.234Z" fill="black"/>
<path id="_x34_a" d="M91.358 42.9625L115.062 5.43164H72.5926L4.93829 116.049H48.3951L91.358 42.9625Z" fill="black"/>
<path id="_x33_e" d="M71.6049 154.074C67.6543 153.086 64.1975 151.111 61.7284 148.642C56.7901 144.197 54.321 137.284 54.321 128.889H5.9259C5.9259 134.321 6.41973 139.753 7.40738 145.185C8.39504 150.617 10.3703 156.049 13.8271 161.481C20.7407 173.827 30.1234 182.716 41.4815 188.148C52.8395 193.58 66.1728 196.543 80 196.543C93.8271 196.543 80 196.543 80.4938 196.543V155.555C77.037 155.555 74.074 155.555 71.1111 154.568L71.6049 154.074Z" fill="black"/>
<path id="_x33_d" d="M147.16 129.383H105.185C105.185 129.876 105.185 130.864 105.185 131.358C105.185 138.272 103.21 143.704 99.2592 148.642C95.3086 153.086 88.8888 155.555 80.4938 155.555V196.543C90.8641 196.543 100.741 195.062 109.63 192.099C118.518 189.136 126.42 184.691 132.839 179.753C139.259 174.321 144.197 167.901 148.148 160C151.605 152.593 153.58 144.197 153.58 134.815C153.58 125.432 153.58 130.864 153.58 129.383H147.654H147.16Z" fill="black"/>
<path id="_x33_c" d="M118.519 129.383H153.58C152.593 120.494 150.123 113.086 146.173 106.667C140.741 99.2593 133.333 93.8272 123.951 90.8642C129.383 87.4074 133.827 82.963 136.79 78.5186H75.5555C74.5679 78.5186 73.5802 78.5186 72.0988 78.5186V109.136C74.0741 109.136 75.5555 108.642 77.037 108.148C78.5185 108.148 80 108.148 81.9753 108.148C84.9383 108.148 87.4074 108.148 89.8765 109.136C93.3333 110.123 96.2963 111.605 98.7654 114.074C103.21 118.025 105.185 123.457 105.679 130.37H118.519V129.383Z" fill="black"/>
<path id="_x33_b" d="M92.8395 44.9379C96.2963 48.3947 98.2716 52.8392 98.2716 58.7651C98.2716 64.691 96.2963 69.1355 92.8395 73.0861C88.8889 76.5429 83.9506 78.5182 78.0247 78.5182H136.79C136.79 78.0243 137.778 77.0367 138.272 76.5429C141.728 71.1108 143.21 63.7034 143.21 54.8145C143.21 45.9256 141.728 39.012 138.765 32.5922C135.802 26.1725 131.852 20.2466 126.42 15.8021C120.988 10.8638 114.568 7.40706 107.16 4.93792C99.7531 2.46879 91.358 0.987305 81.9753 0.987305C72.5926 0.987305 75.0617 0.987305 72.0988 1.48113V41.975C74.0741 40.9873 76.5432 40.9873 79.0123 40.9873C84.4444 40.9873 89.3827 42.9626 92.8395 46.4194V44.9379Z" fill="black"/>
<path id="_x33_a" d="M56.2964 4.44409C48.3951 6.91323 41.9754 10.8638 36.0494 16.2959C30.1235 21.2342 25.6791 27.654 21.7285 35.5552C17.7778 42.9626 15.8025 51.8515 14.321 61.2342H58.7655C58.7655 54.8145 60.7408 49.8762 64.1976 45.9256C66.1729 43.9503 68.642 41.975 71.605 40.9873V0.987305C66.1729 1.48113 60.7408 2.96261 55.8025 4.44409H56.2964Z" fill="black"/>
<path id="_x32_d" d="M44.4445 150.617L4.93829 191.605H155.062V150.617H94.8148H44.4445Z" fill="black"/>
<path id="_x32_c" d="M101.728 73.0863V74.0739C100.741 78.0246 98.7654 82.9628 95.3086 88.8888C91.8518 94.8147 86.9135 102.222 80 111.111C73.0864 120 63.7037 130.864 51.358 143.21L44.9382 150.123H94.8148L125.432 120.988C134.815 112.099 141.728 103.21 146.173 94.3209C149.63 87.4073 151.605 79.9999 152.593 72.0986H101.728V73.0863Z" fill="black"/>
<path id="_x32_b" d="M153.086 66.6667C153.086 57.2839 151.111 48.3951 147.654 40C144.197 32.0988 138.765 24.6914 132.839 18.7654C126.42 12.8395 119.012 8.39506 110.123 4.93827C101.235 1.48148 91.8518 0 81.4814 0C71.1111 0 68.1481 0.987654 62.2222 2.46914V58.7654C63.2098 54.8148 64.6913 51.8518 67.1604 48.8889C71.1111 44.4444 76.0493 42.4691 82.4691 42.4691C88.8888 42.4691 88.8888 42.963 91.358 44.4444C93.8271 45.4321 96.2962 47.4074 97.7777 49.3827C99.753 51.358 100.741 53.8272 101.728 56.2963C102.716 58.7654 103.21 61.7284 103.21 64.1975C103.21 66.6667 103.21 69.1358 102.222 72.5926H153.086C153.086 70.6173 153.086 68.642 153.086 66.6667Z" fill="black"/>
<path id="_x32_a" d="M51.8519 5.43203C42.963 8.88882 35.5556 13.8271 29.1358 20.2468C22.7161 26.6666 17.7778 34.5678 14.321 42.9629C10.8642 51.8518 8.88892 61.7283 8.88892 72.5925H61.7284C61.2346 69.1357 61.2346 66.6666 61.2346 64.6913C61.2346 62.716 61.2346 60.2468 61.7284 58.2715V2.96289C58.2716 3.95054 55.3087 4.44437 51.8519 5.92585V5.43203Z" fill="black"/>
<path id="_x31_c" d="M118.025 116.05H69.6296V191.112H118.025V116.05Z" fill="black"/>
<path id="_x31_b" d="M118.025 46.4199H69.6296V116.05H118.025V46.4199Z" fill="black"/>
<path id="_x31_a" d="M42.4691 46.4193H62.2222H69.6296H117.531V5.43164H42.4691V46.4193Z" fill="black"/>
</g>
<defs>
<clipPath id="clip0_187_16">
<rect width="160" height="196.543" fill="white"/>
</clipPath>
</defs>
</svg>
